# Blender 4.3.2
# www.blender.org
mtllib player.mtl
o Player
v 0.013339 0.452486 0.109228
v 0.013339 -0.789215 0.670850
v 0.013339 -0.539059 0.464226
v 0.013339 -0.040796 0.315628
v 0.013339 0.227454 0.315628
v 0.013339 0.360794 0.243034
v 0.013339 -0.453087 0.148319
v 0.013339 -0.239847 0.236296
v 0.013339 -0.623069 0.603859
v 0.013339 -0.343527 0.148319
v 0.013339 0.452486 -0.100882
v 0.013339 -0.539059 -0.455879
v 0.013339 -0.040796 -0.307281
v 0.013339 0.227454 -0.307281
v 0.013339 0.360794 -0.234687
v 0.013339 -0.789215 -0.662503
v 0.013339 -0.453087 -0.139973
v 0.013339 -0.239847 -0.227949
v 0.013339 -0.623069 -0.595512
v 0.013339 -0.343527 -0.139973
v -0.060565 -0.064935 -0.243498
v 0.017069 0.063908 -0.210184
v 0.017069 0.003293 -0.119348
v -0.058116 0.366081 -0.517736
v 0.014466 0.254307 -0.192114
v 0.014466 0.145316 -0.265497
v -0.058116 -0.241042 -0.288131
v 0.015844 -0.125803 -0.242789
v 0.015844 -0.237662 -0.156318
v -0.058116 0.355573 -0.184419
v 0.015844 0.344813 -0.043909
v 0.015844 0.231761 -0.116288
v -0.058116 0.451726 0.205027
v 0.015844 0.310887 0.209851
v 0.015844 0.371307 0.096772
v -0.058116 -0.105447 0.334130
v 0.015844 -0.105447 0.193651
v 0.015844 0.005917 0.266503
v -0.058116 0.091816 0.230268
v 0.015844 0.078547 0.068569
v 0.015844 0.183459 0.100872
v -0.058116 0.392954 0.487080
v 0.015844 0.154230 0.239020
v 0.015844 0.269266 0.175532
v -0.048164 -0.412044 -0.004176
v 0.014093 -0.143062 -0.084009
v 0.014093 -0.149129 0.070059
v -0.062014 0.718108 -0.052477
v 0.014693 0.384654 0.050925
v 0.014693 0.382388 -0.090837
v 0.014270 0.452486 0.109228
v 0.012408 0.452486 0.109228
v 0.017120 -0.789215 0.670850
v 0.009558 -0.789215 0.670850
v 0.014565 -0.539059 0.464226
v 0.012113 -0.539059 0.464226
v 0.014545 -0.040796 0.315628
v 0.012133 -0.040796 0.315628
v 0.014389 0.227454 0.315628
v 0.012289 0.227454 0.315628
v 0.014124 0.360794 0.243034
v 0.012554 0.360794 0.243034
v 0.014432 -0.453087 0.148319
v 0.012247 -0.453087 0.148319
v 0.014215 -0.239847 0.236296
v 0.012463 -0.239847 0.236296
v 0.014194 -0.623069 0.603859
v 0.012484 -0.623069 0.603859
v 0.013953 -0.343527 0.148319
v 0.012725 -0.343527 0.148319
v 0.014270 0.452486 -0.100882
v 0.012408 0.452486 -0.100882
v 0.014565 -0.539059 -0.455879
v 0.012113 -0.539059 -0.455879
v 0.014545 -0.040796 -0.307281
v 0.012133 -0.040796 -0.307281
v 0.014389 0.227454 -0.307281
v 0.012289 0.227454 -0.307281
v 0.014124 0.360794 -0.234687
v 0.012554 0.360794 -0.234687
v 0.017120 -0.789215 -0.662503
v 0.009558 -0.789215 -0.662503
v 0.014432 -0.453087 -0.139973
v 0.012247 -0.453087 -0.139973
v 0.014215 -0.239847 -0.227949
v 0.012463 -0.239847 -0.227949
v 0.014194 -0.623069 -0.595512
v 0.012484 -0.623069 -0.595512
v 0.013953 -0.343527 -0.139973
v 0.012725 -0.343527 -0.139973
v -0.059893 -0.065280 -0.243728
v -0.061236 -0.064590 -0.243268
v 0.017629 0.063620 -0.210376
v 0.016509 0.064196 -0.209992
v 0.017644 0.002997 -0.119545
v 0.016493 0.003589 -0.119150
v -0.056418 0.366288 -0.518043
v -0.059813 0.365874 -0.517428
v 0.015647 0.254451 -0.192327
v 0.013286 0.254163 -0.191900
v 0.015625 0.145458 -0.265707
v 0.013308 0.145175 -0.265287
v -0.057509 -0.241300 -0.288465
v -0.058722 -0.240785 -0.287797
v 0.016430 -0.126053 -0.243112
v 0.015258 -0.125554 -0.242466
v 0.016445 -0.237918 -0.156648
v 0.015244 -0.237407 -0.155987
v -0.057431 0.355793 -0.184763
v -0.058800 0.355353 -0.184076
v 0.016474 0.345015 -0.044225
v 0.015214 0.344611 -0.043592
v 0.016475 0.231964 -0.116604
v 0.015213 0.231559 -0.115971
v -0.057447 0.452084 0.205218
v -0.058785 0.451369 0.204836
v 0.016458 0.311215 0.210027
v 0.015230 0.310558 0.209675
v 0.016447 0.371630 0.096945
v 0.015241 0.370985 0.096600
v -0.057463 -0.105672 0.334474
v -0.058769 -0.105222 0.333786
v 0.016462 -0.105660 0.193977
v 0.015226 -0.105234 0.193326
v 0.016443 0.005711 0.266818
v 0.015245 0.006123 0.266188
v -0.057323 0.091701 0.230640
v -0.058908 0.091930 0.229896
v 0.016491 0.078454 0.068873
v 0.015198 0.078640 0.068266
v 0.016483 0.183366 0.101172
v 0.015205 0.183551 0.100572
v -0.056419 0.393137 0.487411
v -0.059813 0.392772 0.486750
v 0.017024 0.154357 0.239250
v 0.014664 0.154103 0.238790
v 0.017002 0.269391 0.175757
v 0.014686 0.269142 0.175306
v -0.046783 -0.412368 -0.004189
v -0.049546 -0.411721 -0.004163
v 0.015167 -0.143314 -0.084018
v 0.013018 -0.142810 -0.083999
v 0.015150 -0.149376 0.070049
v 0.013035 -0.148881 0.070069
v -0.060298 0.718500 -0.052483
v -0.063729 0.717715 -0.052471
v 0.015910 0.384933 0.050921
v 0.013476 0.384376 0.050930
v 0.015883 0.382661 -0.090842
v 0.013503 0.382116 -0.090833
v 0.013339 0.227186 -0.306231
v 0.013339 0.227721 -0.308331
v 0.013339 -0.041027 -0.308487
v 0.013339 -0.040564 -0.306075
v 0.013339 -0.240305 -0.228710
v 0.013339 -0.239390 -0.227189
v 0.013339 -0.343753 -0.140586
v 0.013339 -0.343302 -0.139359
v 0.013339 -0.452252 -0.141065
v 0.013339 -0.453922 -0.138880
v 0.013339 -0.537921 -0.456365
v 0.013339 -0.540198 -0.455393
v 0.013339 -0.622484 -0.596198
v 0.013339 -0.623654 -0.594826
v 0.013339 -0.792996 -0.668105
v 0.013339 -0.785433 -0.656902
v 0.013339 -0.792996 0.676452
v 0.013339 -0.785433 0.665249
v 0.013339 -0.622484 0.604545
v 0.013339 -0.623654 0.603173
v 0.013339 -0.537921 0.464712
v 0.013339 -0.540198 0.463739
v 0.013339 -0.452252 0.149412
v 0.013339 -0.453922 0.147227
v 0.013339 -0.343753 0.148933
v 0.013339 -0.343302 0.147705
v 0.013339 -0.240305 0.237056
v 0.013339 -0.239390 0.235536
v 0.013339 -0.041027 0.316834
v 0.013339 -0.040564 0.314422
v 0.013339 0.227721 0.316678
v 0.013339 0.227186 0.314578
v 0.013339 0.361335 0.243633
v 0.013339 0.360253 0.242434
v 0.013339 0.453417 0.109517
v 0.013339 0.451555 0.108940
v 0.013339 0.453417 -0.101170
v 0.013339 0.451555 -0.100593
v 0.013339 0.361335 -0.235286
v 0.013339 0.360253 -0.234088
v -0.059366 -0.063403 -0.242299
v -0.061763 -0.066467 -0.244697
v 0.017424 0.003195 -0.118163
v 0.016713 0.003391 -0.120532
v 0.017415 0.064863 -0.210606
v 0.016723 0.062953 -0.209761
v -0.056157 0.361575 -0.509951
v -0.060074 0.370587 -0.525521
v 0.014719 0.143556 -0.265286
v 0.014213 0.147077 -0.265709
v 0.014724 0.254946 -0.190260
v 0.014209 0.253668 -0.193967
v -0.057234 -0.240320 -0.287088
v -0.058997 -0.241765 -0.289174
v 0.016262 -0.238319 -0.155051
v 0.015426 -0.237006 -0.157584
v 0.016252 -0.124539 -0.243025
v 0.015436 -0.127068 -0.242553
v -0.057148 0.354693 -0.183054
v -0.059083 0.356453 -0.185785
v 0.016220 0.230449 -0.116378
v 0.015468 0.233073 -0.116197
v 0.016219 0.345439 -0.042760
v 0.015469 0.344187 -0.045057
v -0.057125 0.450252 0.204321
v -0.059106 0.453201 0.205732
v 0.016210 0.371268 0.095567
v 0.015478 0.371346 0.097978
v 0.016217 0.309800 0.210582
v 0.015471 0.311974 0.209120
v -0.057163 -0.104709 0.332803
v -0.059068 -0.106185 0.335456
v 0.016221 0.007123 0.266576
v 0.015467 0.004712 0.266429
v 0.016233 -0.106145 0.192457
v 0.015456 -0.104749 0.194846
v -0.056863 0.092488 0.227806
v -0.059368 0.091144 0.232731
v 0.016158 0.184557 0.100542
v 0.015530 0.182361 0.101203
v 0.016161 0.077759 0.067650
v 0.015527 0.079335 0.069488
v -0.056118 0.388080 0.479512
v -0.060113 0.397829 0.494649
v 0.016102 0.269882 0.173869
v 0.015586 0.268650 0.177195
v 0.016106 0.152289 0.238744
v 0.015582 0.156171 0.239297
v -0.046972 -0.406953 -0.004211
v -0.049356 -0.417136 -0.004141
v 0.014340 -0.148126 0.071469
v 0.013845 -0.150131 0.068649
v 0.014344 -0.141928 -0.085494
v 0.013841 -0.144196 -0.082523
v -0.060064 0.709602 -0.051678
v -0.063964 0.726613 -0.053276
v 0.014965 0.381176 -0.092204
v 0.014421 0.383600 -0.089471
v 0.014972 0.383464 0.052598
v 0.014414 0.385844 0.049252
vn -1.0000 -0.0000 -0.0000
vn -0.8507 0.4372 0.2917
vn -0.9770 -0.1191 0.1769
vn -0.8210 0.3492 0.4517
vn -0.8591 -0.2760 0.4311
vn -0.8550 -0.4574 -0.2444
vn -0.8464 0.2915 -0.4456
vn -0.8976 0.1297 -0.4212
vn -0.9761 -0.1049 -0.1901
vn -0.9736 0.2280 0.0090
vn -0.9748 -0.2231 0.0036
vn 0.7071 0.0004 0.7071
vn -0.7071 0.0004 0.7071
vn 0.7071 0.0004 -0.7071
vn -0.7071 0.0004 -0.7071
vn 0.7071 0.2608 0.6572
vn -0.7071 0.2608 0.6572
vn 0.7071 -0.2628 -0.6565
vn -0.7071 -0.2628 -0.6565
vn 0.7073 0.4564 0.5399
vn -0.7073 0.4564 0.5399
vn 0.7069 -0.4587 -0.5384
vn -0.7069 -0.4587 -0.5384
vn 0.7066 0.0031 0.7077
vn -0.7066 0.0031 0.7077
vn 0.7077 0.0031 -0.7065
vn -0.7077 0.0031 -0.7065
vn 0.7072 -0.6822 0.1859
vn -0.7072 -0.6822 0.1859
vn 0.7070 0.6824 -0.1854
vn -0.7070 0.6824 -0.1854
vn 0.7070 -0.6068 0.3632
vn -0.7070 -0.6068 0.3632
vn 0.7071 0.6050 -0.3659
vn -0.7071 0.6050 -0.3659
vn 0.7138 -0.2510 0.6539
vn -0.7138 -0.2510 0.6539
vn 0.7005 0.2774 -0.6575
vn -0.7005 0.2774 -0.6575
vn 0.7071 0.7071 -0.0000
vn -0.7071 0.7071 -0.0000
vn 0.7071 -0.7071 -0.0000
vn -0.7071 -0.7071 -0.0000
vn 0.7138 -0.2510 -0.6539
vn -0.7138 -0.2510 -0.6539
vn 0.7005 0.2774 0.6575
vn -0.7005 0.2774 0.6575
vn 0.7070 -0.6068 -0.3632
vn -0.7070 -0.6068 -0.3632
vn 0.7071 0.6050 0.3659
vn -0.7071 0.6050 0.3659
vn 0.7072 -0.6822 -0.1859
vn -0.7072 -0.6822 -0.1859
vn 0.7070 0.6824 0.1854
vn -0.7070 0.6824 0.1854
vn 0.7066 0.0031 -0.7077
vn -0.7066 0.0031 -0.7077
vn 0.7077 0.0031 0.7065
vn -0.7077 0.0031 0.7065
vn 0.7073 0.4564 -0.5399
vn -0.7073 0.4564 -0.5399
vn 0.7069 -0.4587 0.5384
vn -0.7069 -0.4587 0.5384
vn 0.7071 0.2608 -0.6572
vn -0.7071 0.2608 -0.6572
vn 0.7071 -0.2628 0.6565
vn -0.7071 -0.2628 0.6565
vn 0.7071 -0.3370 -0.6216
vn -0.7071 -0.3370 -0.6216
vn 0.7071 0.3392 0.6205
vn -0.7071 0.3392 0.6205
vn 0.7071 -0.5837 -0.3992
vn -0.7071 -0.5837 -0.3992
vn 0.7071 0.5830 0.4003
vn -0.7071 0.5830 0.4003
vn 0.7071 -0.5837 0.3992
vn -0.7071 -0.5837 0.3992
vn 0.7071 0.5830 -0.4003
vn -0.7071 0.5830 -0.4003
vn 0.7071 -0.3370 0.6216
vn -0.7071 -0.3370 0.6216
vn 0.7071 0.3392 -0.6205
vn -0.7071 0.3392 -0.6205
vn 0.7524 0.2523 -0.6085
vn -0.4511 0.8707 -0.1958
vn 0.4511 -0.8705 0.1969
vn -0.7517 -0.2524 0.6094
vn 0.2299 -0.8094 -0.5403
vn -0.9732 -0.1912 -0.1277
vn 0.9732 0.1913 0.1275
vn -0.2299 0.8096 0.5401
vn 0.7077 -0.5427 0.4524
vn -0.4959 0.0758 0.8651
vn 0.4959 -0.0744 -0.8652
vn -0.7068 0.5436 -0.4527
vn 0.7111 0.6171 0.3370
vn -0.6735 0.4483 0.5877
vn 0.6710 -0.4523 -0.5875
vn -0.7078 -0.6204 -0.3378
vn 0.5401 0.4700 -0.6982
vn -0.8416 0.3015 -0.4480
vn 0.8416 -0.3017 0.4479
vn -0.5400 -0.4702 0.6981
vn 0.7305 -0.5798 -0.3607
vn -0.6538 -0.7486 -0.1101
vn 0.6515 0.7501 0.1134
vn -0.7276 0.5820 0.3631
vn 0.7887 0.4155 -0.4531
vn -0.3724 0.9093 0.1857
vn 0.3724 -0.9093 -0.1856
vn -0.7887 -0.4155 0.4532
vn 0.1768 -0.6019 -0.7788
vn -0.9842 -0.1081 -0.1399
vn 0.9842 0.1082 0.1398
vn -0.1768 0.6020 0.7786
vn 0.7582 -0.5931 0.2710
vn -0.4029 -0.0992 0.9098
vn 0.4030 0.0994 -0.9098
vn -0.7580 0.5933 -0.2710
vn 0.7609 0.5957 0.2573
vn -0.4541 0.2054 0.8669
vn 0.4543 -0.2059 -0.8667
vn -0.7606 -0.5962 -0.2572
vn 0.2456 0.5227 -0.8164
vn -0.9694 0.1324 -0.2068
vn 0.9694 -0.1324 0.2068
vn -0.2455 -0.5227 0.8164
vn 0.7593 -0.4828 -0.4363
vn -0.4557 -0.8731 0.1733
vn 0.4558 0.8731 -0.1728
vn -0.7590 0.4829 0.4368
vn 0.7421 -0.1853 0.6442
vn -0.4672 -0.8322 0.2985
vn 0.4674 0.8319 -0.2991
vn -0.7416 0.1851 -0.6447
vn 0.2379 0.8567 0.4577
vn -0.9713 0.2099 0.1121
vn 0.9713 -0.2098 -0.1122
vn -0.2379 -0.8566 -0.4578
vn 0.7675 0.3852 -0.5124
vn -0.4418 -0.2617 -0.8581
vn 0.4419 0.2612 0.8582
vn -0.7672 -0.3856 0.5126
vn 0.7399 -0.6316 -0.2316
vn -0.4573 -0.2193 -0.8619
vn 0.4574 0.2199 0.8616
vn -0.7395 0.6321 0.2315
vn 0.2220 -0.5337 0.8160
vn -0.9751 -0.1214 0.1858
vn 0.9751 0.1216 -0.1857
vn -0.2220 0.5339 -0.8159
vn 0.7810 0.4702 0.4110
vn -0.4160 0.8825 -0.2193
vn 0.4162 -0.8825 0.2189
vn -0.7808 -0.4703 -0.4113
vn 0.7235 -0.6864 -0.0735
vn -0.5467 -0.5029 -0.6695
vn 0.5465 0.5043 0.6686
vn -0.7223 0.6877 0.0732
vn 0.3231 -0.2784 0.9045
vn -0.9464 -0.0950 0.3088
vn 0.9464 0.0951 -0.3088
vn -0.3231 0.2785 -0.9045
vn 0.7406 0.6070 0.2882
vn -0.5295 0.7905 -0.3078
vn 0.5293 -0.7912 0.3063
vn -0.7395 -0.6079 -0.2891
vn 0.7108 -0.5801 0.3978
vn -0.6726 -0.7288 0.1284
vn 0.6701 0.7304 -0.1321
vn -0.7075 0.5824 -0.4004
vn 0.5367 0.4078 0.7387
vn -0.8438 0.2594 0.4698
vn 0.8438 -0.2592 -0.4700
vn -0.5367 -0.4076 -0.7388
vn 0.7306 0.5871 -0.3487
vn -0.6526 0.4384 -0.6180
vn 0.6502 -0.4421 0.6179
vn -0.7277 -0.5902 0.3495
vn 0.7260 0.0231 -0.6873
vn -0.6521 0.3458 -0.6746
vn 0.6513 -0.3443 0.6763
vn -0.7245 -0.0221 0.6890
vn 0.5271 -0.8492 -0.0334
vn -0.8498 -0.5267 -0.0207
vn 0.8498 0.5267 0.0208
vn -0.5271 0.8491 0.0335
vn 0.7398 0.0291 0.6722
vn -0.6381 0.3518 0.6849
vn 0.6373 -0.3504 -0.6863
vn -0.7385 -0.0282 -0.6736
vn 0.7107 0.0814 0.6988
vn -0.6705 -0.2348 0.7038
vn 0.6683 0.2323 -0.7067
vn -0.7077 -0.0826 -0.7017
vn 0.5315 0.8469 -0.0137
vn -0.8471 0.5314 -0.0086
vn 0.8471 -0.5314 0.0084
vn -0.5315 -0.8470 0.0134
vn 0.7339 -0.0425 -0.6780
vn -0.6470 -0.3586 -0.6729
vn 0.6450 0.3568 0.6757
vn -0.7313 0.0418 0.6808
vt 0.124566 0.000000
vt 0.249132 0.000000
vt 0.343265 0.000003
vt 0.390291 0.000002
vt 0.437317 0.000000
vt 0.498264 0.000000
vt 0.561198 0.000000
vt 1.000000 0.000000
vt 0.624132 0.000000
vt 0.042808 0.000000
vt 0.000000 0.000000
vt 1.000000 1.000000
s 0
f 14/1/1 13/2/1 18/3/1 20/4/1 17/5/1 12/6/1 19/7/1 16/8/1 2/9/1 9/7/1 3/6/1 7/5/1 10/4/1 8/3/1 4/2/1 5/1/1 6/10/1 1/11/1 11/11/1 15/10/1
f 21/11/2 23/12/2 22/8/2
f 24/11/3 26/12/3 25/8/3
f 27/11/4 29/12/4 28/8/4
f 30/11/5 32/12/5 31/8/5
f 33/11/6 35/12/6 34/8/6
f 36/11/7 38/12/7 37/8/7
f 39/11/8 41/12/8 40/8/8
f 42/11/9 44/12/9 43/8/9
f 45/11/10 47/12/10 46/8/10
f 48/11/11 50/12/11 49/8/11
f 151/1/12 154/2/12 75/2/12 77/1/12
f 154/2/13 151/1/13 78/1/13 76/2/13
f 153/2/14 152/1/14 77/1/14 75/2/14
f 152/1/15 153/2/15 76/2/15 78/1/15
f 154/2/16 156/3/16 85/3/16 75/2/16
f 156/3/17 154/2/17 76/2/17 86/3/17
f 155/3/18 153/2/18 75/2/18 85/3/18
f 153/2/19 155/3/19 86/3/19 76/2/19
f 156/3/20 158/4/20 89/4/20 85/3/20
f 158/4/21 156/3/21 86/3/21 90/4/21
f 157/4/22 155/3/22 85/3/22 89/4/22
f 155/3/23 157/4/23 90/4/23 86/3/23
f 158/4/24 160/5/24 83/5/24 89/4/24
f 160/5/25 158/4/25 90/4/25 84/5/25
f 159/5/26 157/4/26 89/4/26 83/5/26
f 157/4/27 159/5/27 84/5/27 90/4/27
f 160/5/28 162/6/28 73/6/28 83/5/28
f 162/6/29 160/5/29 84/5/29 74/6/29
f 161/6/30 159/5/30 83/5/30 73/6/30
f 159/5/31 161/6/31 74/6/31 84/5/31
f 162/6/32 164/7/32 87/7/32 73/6/32
f 164/7/33 162/6/33 74/6/33 88/7/33
f 163/7/34 161/6/34 73/6/34 87/7/34
f 161/6/35 163/7/35 88/7/35 74/6/35
f 164/7/36 166/8/36 81/8/36 87/7/36
f 166/8/37 164/7/37 88/7/37 82/8/37
f 165/8/38 163/7/38 87/7/38 81/8/38
f 163/7/39 165/8/39 82/8/39 88/7/39
f 166/8/40 168/9/40 53/9/40 81/8/40
f 168/9/41 166/8/41 82/8/41 54/9/41
f 167/9/42 165/8/42 81/8/42 53/9/42
f 165/8/43 167/9/43 54/9/43 82/8/43
f 168/9/44 170/7/44 67/7/44 53/9/44
f 170/7/45 168/9/45 54/9/45 68/7/45
f 169/7/46 167/9/46 53/9/46 67/7/46
f 167/9/47 169/7/47 68/7/47 54/9/47
f 170/7/48 172/6/48 55/6/48 67/7/48
f 172/6/49 170/7/49 68/7/49 56/6/49
f 171/6/50 169/7/50 67/7/50 55/6/50
f 169/7/51 171/6/51 56/6/51 68/7/51
f 172/6/52 174/5/52 63/5/52 55/6/52
f 174/5/53 172/6/53 56/6/53 64/5/53
f 173/5/54 171/6/54 55/6/54 63/5/54
f 171/6/55 173/5/55 64/5/55 56/6/55
f 174/5/56 176/4/56 69/4/56 63/5/56
f 176/4/57 174/5/57 64/5/57 70/4/57
f 175/4/58 173/5/58 63/5/58 69/4/58
f 173/5/59 175/4/59 70/4/59 64/5/59
f 176/4/60 178/3/60 65/3/60 69/4/60
f 178/3/61 176/4/61 70/4/61 66/3/61
f 177/3/62 175/4/62 69/4/62 65/3/62
f 175/4/63 177/3/63 66/3/63 70/4/63
f 178/3/64 180/2/64 57/2/64 65/3/64
f 180/2/65 178/3/65 66/3/65 58/2/65
f 179/2/66 177/3/66 65/3/66 57/2/66
f 177/3/67 179/2/67 58/2/67 66/3/67
f 180/2/14 182/1/14 59/1/14 57/2/14
f 182/1/15 180/2/15 58/2/15 60/1/15
f 181/1/12 179/2/12 57/2/12 59/1/12
f 179/2/13 181/1/13 60/1/13 58/2/13
f 182/1/68 184/10/68 61/10/68 59/1/68
f 184/10/69 182/1/69 60/1/69 62/10/69
f 183/10/70 181/1/70 59/1/70 61/10/70
f 181/1/71 183/10/71 62/10/71 60/1/71
f 184/10/72 186/11/72 51/11/72 61/10/72
f 186/11/73 184/10/73 62/10/73 52/11/73
f 185/11/74 183/10/74 61/10/74 51/11/74
f 183/10/75 185/11/75 52/11/75 62/10/75
f 186/11/42 188/11/42 71/11/42 51/11/42
f 188/11/43 186/11/43 52/11/43 72/11/43
f 187/11/40 185/11/40 51/11/40 71/11/40
f 185/11/41 187/11/41 72/11/41 52/11/41
f 188/11/76 190/10/76 79/10/76 71/11/76
f 190/10/77 188/11/77 72/11/77 80/10/77
f 189/10/78 187/11/78 71/11/78 79/10/78
f 187/11/79 189/10/79 80/10/79 72/11/79
f 190/10/80 151/1/80 77/1/80 79/10/80
f 151/1/81 190/10/81 80/10/81 78/1/81
f 152/1/82 189/10/82 79/10/82 77/1/82
f 189/10/83 152/1/83 78/1/83 80/10/83
f 191/11/84 194/12/84 95/12/84 91/11/84
f 194/12/85 191/11/85 92/11/85 96/12/85
f 193/12/86 192/11/86 91/11/86 95/12/86
f 192/11/87 193/12/87 96/12/87 92/11/87
f 194/12/88 196/8/88 93/8/88 95/12/88
f 196/8/89 194/12/89 96/12/89 94/8/89
f 195/8/90 193/12/90 95/12/90 93/8/90
f 193/12/91 195/8/91 94/8/91 96/12/91
f 196/8/92 191/11/92 91/11/92 93/8/92
f 191/11/93 196/8/93 94/8/93 92/11/93
f 192/11/94 195/8/94 93/8/94 91/11/94
f 195/8/95 192/11/95 92/11/95 94/8/95
f 197/11/96 200/12/96 101/12/96 97/11/96
f 200/12/97 197/11/97 98/11/97 102/12/97
f 199/12/98 198/11/98 97/11/98 101/12/98
f 198/11/99 199/12/99 102/12/99 98/11/99
f 200/12/100 202/8/100 99/8/100 101/12/100
f 202/8/101 200/12/101 102/12/101 100/8/101
f 201/8/102 199/12/102 101/12/102 99/8/102
f 199/12/103 201/8/103 100/8/103 102/12/103
f 202/8/104 197/11/104 97/11/104 99/8/104
f 197/11/105 202/8/105 100/8/105 98/11/105
f 198/11/106 201/8/106 99/8/106 97/11/106
f 201/8/107 198/11/107 98/11/107 100/8/107
f 203/11/108 206/12/108 107/12/108 103/11/108
f 206/12/109 203/11/109 104/11/109 108/12/109
f 205/12/110 204/11/110 103/11/110 107/12/110
f 204/11/111 205/12/111 108/12/111 104/11/111
f 206/12/112 208/8/112 105/8/112 107/12/112
f 208/8/113 206/12/113 108/12/113 106/8/113
f 207/8/114 205/12/114 107/12/114 105/8/114
f 205/12/115 207/8/115 106/8/115 108/12/115
f 208/8/116 203/11/116 103/11/116 105/8/116
f 203/11/117 208/8/117 106/8/117 104/11/117
f 204/11/118 207/8/118 105/8/118 103/11/118
f 207/8/119 204/11/119 104/11/119 106/8/119
f 209/11/120 212/12/120 113/12/120 109/11/120
f 212/12/121 209/11/121 110/11/121 114/12/121
f 211/12/122 210/11/122 109/11/122 113/12/122
f 210/11/123 211/12/123 114/12/123 110/11/123
f 212/12/124 214/8/124 111/8/124 113/12/124
f 214/8/125 212/12/125 114/12/125 112/8/125
f 213/8/126 211/12/126 113/12/126 111/8/126
f 211/12/127 213/8/127 112/8/127 114/12/127
f 214/8/128 209/11/128 109/11/128 111/8/128
f 209/11/129 214/8/129 112/8/129 110/11/129
f 210/11/130 213/8/130 111/8/130 109/11/130
f 213/8/131 210/11/131 110/11/131 112/8/131
f 215/11/132 218/12/132 119/12/132 115/11/132
f 218/12/133 215/11/133 116/11/133 120/12/133
f 217/12/134 216/11/134 115/11/134 119/12/134
f 216/11/135 217/12/135 120/12/135 116/11/135
f 218/12/136 220/8/136 117/8/136 119/12/136
f 220/8/137 218/12/137 120/12/137 118/8/137
f 219/8/138 217/12/138 119/12/138 117/8/138
f 217/12/139 219/8/139 118/8/139 120/12/139
f 220/8/140 215/11/140 115/11/140 117/8/140
f 215/11/141 220/8/141 118/8/141 116/11/141
f 216/11/142 219/8/142 117/8/142 115/11/142
f 219/8/143 216/11/143 116/11/143 118/8/143
f 221/11/144 224/12/144 125/12/144 121/11/144
f 224/12/145 221/11/145 122/11/145 126/12/145
f 223/12/146 222/11/146 121/11/146 125/12/146
f 222/11/147 223/12/147 126/12/147 122/11/147
f 224/12/148 226/8/148 123/8/148 125/12/148
f 226/8/149 224/12/149 126/12/149 124/8/149
f 225/8/150 223/12/150 125/12/150 123/8/150
f 223/12/151 225/8/151 124/8/151 126/12/151
f 226/8/152 221/11/152 121/11/152 123/8/152
f 221/11/153 226/8/153 124/8/153 122/11/153
f 222/11/154 225/8/154 123/8/154 121/11/154
f 225/8/155 222/11/155 122/11/155 124/8/155
f 227/11/156 230/12/156 131/12/156 127/11/156
f 230/12/157 227/11/157 128/11/157 132/12/157
f 229/12/158 228/11/158 127/11/158 131/12/158
f 228/11/159 229/12/159 132/12/159 128/11/159
f 230/12/160 232/8/160 129/8/160 131/12/160
f 232/8/161 230/12/161 132/12/161 130/8/161
f 231/8/162 229/12/162 131/12/162 129/8/162
f 229/12/163 231/8/163 130/8/163 132/12/163
f 232/8/164 227/11/164 127/11/164 129/8/164
f 227/11/165 232/8/165 130/8/165 128/11/165
f 228/11/166 231/8/166 129/8/166 127/11/166
f 231/8/167 228/11/167 128/11/167 130/8/167
f 233/11/168 236/12/168 137/12/168 133/11/168
f 236/12/169 233/11/169 134/11/169 138/12/169
f 235/12/170 234/11/170 133/11/170 137/12/170
f 234/11/171 235/12/171 138/12/171 134/11/171
f 236/12/172 238/8/172 135/8/172 137/12/172
f 238/8/173 236/12/173 138/12/173 136/8/173
f 237/8/174 235/12/174 137/12/174 135/8/174
f 235/12/175 237/8/175 136/8/175 138/12/175
f 238/8/176 233/11/176 133/11/176 135/8/176
f 233/11/177 238/8/177 136/8/177 134/11/177
f 234/11/178 237/8/178 135/8/178 133/11/178
f 237/8/179 234/11/179 134/11/179 136/8/179
f 239/11/180 242/12/180 143/12/180 139/11/180
f 242/12/181 239/11/181 140/11/181 144/12/181
f 241/12/182 240/11/182 139/11/182 143/12/182
f 240/11/183 241/12/183 144/12/183 140/11/183
f 242/12/184 244/8/184 141/8/184 143/12/184
f 244/8/185 242/12/185 144/12/185 142/8/185
f 243/8/186 241/12/186 143/12/186 141/8/186
f 241/12/187 243/8/187 142/8/187 144/12/187
f 244/8/188 239/11/188 139/11/188 141/8/188
f 239/11/189 244/8/189 142/8/189 140/11/189
f 240/11/190 243/8/190 141/8/190 139/11/190
f 243/8/191 240/11/191 140/11/191 142/8/191
f 245/11/192 248/12/192 149/12/192 145/11/192
f 248/12/193 245/11/193 146/11/193 150/12/193
f 247/12/194 246/11/194 145/11/194 149/12/194
f 246/11/195 247/12/195 150/12/195 146/11/195
f 248/12/196 250/8/196 147/8/196 149/12/196
f 250/8/197 248/12/197 150/12/197 148/8/197
f 249/8/198 247/12/198 149/12/198 147/8/198
f 247/12/199 249/8/199 148/8/199 150/12/199
f 250/8/200 245/11/200 145/11/200 147/8/200
f 245/11/201 250/8/201 148/8/201 146/11/201
f 246/11/202 249/8/202 147/8/202 145/11/202
f 249/8/203 246/11/203 146/11/203 148/8/203
