# Blender 4.3.2
# www.blender.org
mtllib test.mtl
o Cube
v -3.000000 -0.202030 1.449866
v -3.000000 1.635130 1.449866
v -3.000000 -0.202030 -1.449866
v -3.000000 1.635130 -1.449866
v -1.000000 -2.242678 3.002390
v -1.000000 2.242678 3.002390
v -1.000000 -2.242678 -3.002390
v -1.000000 2.242678 -3.002390
vn 1.0000 -0.0000 -0.0000
vn 0.6132 -0.0000 0.7899
vn 0.6132 -0.0000 -0.7899
vn 0.7142 0.7000 -0.0000
vn 0.2907 -0.9568 -0.0000
vt 0.375000 0.250000
vt 0.625000 0.000000
vt 0.375000 0.000000
vt 0.625000 0.500000
vt 0.625000 0.250000
vt 0.375000 1.000000
vt 0.625000 0.750000
vt 0.375000 0.750000
vt 0.125000 0.750000
vt 0.375000 0.500000
vt 0.125000 0.500000
vt 0.875000 0.500000
vt 0.625000 1.000000
vt 0.875000 0.750000
s 0
f 3/1/1 2/2/1 1/3/1
f 3/1/2 8/4/2 4/5/2
f 1/6/3 6/7/3 5/8/3
f 1/9/4 7/10/4 3/11/4
f 6/7/5 4/12/5 8/4/5
f 3/1/1 4/5/1 2/2/1
f 3/1/2 7/10/2 8/4/2
f 1/6/3 2/13/3 6/7/3
f 1/9/4 5/8/4 7/10/4
f 6/7/5 2/14/5 4/12/5
o sb
v -7.000000 0.993831 -0.607887
v -7.000000 0.844007 -0.258483
v -7.000000 0.608085 -0.599839
v -7.000000 0.322039 -0.492516
v -7.000000 0.732618 -0.127855
v -7.000000 0.190465 -0.443151
v -7.000000 0.331334 -0.434757
v -7.000000 0.701010 -0.256340
v -7.000000 0.578522 -0.166666
v -7.000000 0.618529 -0.548263
v -7.000000 0.732618 0.000000
v -7.000000 1.505028 0.000000
v -7.000000 0.533008 -0.022956
v -7.000000 0.804565 -0.083598
v -7.000000 0.491992 0.000000
v -7.000000 0.318112 -0.140972
v -7.000000 0.124717 -0.140972
v -7.000000 0.606266 -0.065318
v -7.000000 1.040776 -0.266389
v -7.000000 1.301201 -0.502808
v -7.000000 0.956297 -0.133101
v -7.000000 0.983937 -0.499631
v -7.000000 1.311524 -0.321845
v -7.000000 1.054636 -0.140021
v -7.000000 1.037181 0.000000
v -7.000000 -0.013047 -0.174442
v -7.000000 1.505028 -0.266631
v -7.000000 0.325519 -0.210620
v -7.000000 0.201562 -0.206198
v -7.000000 0.949875 -0.372964
v -7.000000 1.218245 -0.343835
v -7.000000 0.124717 0.000000
v -7.000000 0.318112 0.000000
v -7.000000 0.491992 -0.165389
v -7.000000 -0.013047 0.000000
v -7.000000 0.993831 0.607887
v -7.000000 0.844007 0.258483
v -7.000000 0.608085 0.599839
v -7.000000 0.322039 0.492516
v -7.000000 0.732618 0.127855
v -7.000000 0.190465 0.443151
v -7.000000 0.331334 0.434757
v -7.000000 0.701010 0.256340
v -7.000000 0.578522 0.166666
v -7.000000 0.618529 0.548263
v -7.000000 0.533008 0.022956
v -7.000000 0.804565 0.083598
v -7.000000 0.318112 0.140972
v -7.000000 0.124717 0.140972
v -7.000000 0.606266 0.065318
v -7.000000 1.040776 0.266389
v -7.000000 1.301201 0.502808
v -7.000000 0.956297 0.133101
v -7.000000 0.983937 0.499631
v -7.000000 1.311524 0.321845
v -7.000000 1.054636 0.140021
v -7.000000 -0.013047 0.174442
v -7.000000 1.505028 0.266631
v -7.000000 0.325519 0.210620
v -7.000000 0.201562 0.206198
v -7.000000 0.949875 0.372964
v -7.000000 1.218245 0.343835
v -7.000000 0.491992 0.165389
vn 1.0000 -0.0000 -0.0000
vn -1.0000 -0.0000 -0.0000
vt 0.000000 0.000000
s 0
f 20/15/6 32/15/6 35/15/6
f 27/15/7 29/15/7 32/15/7
f 31/15/6 32/15/6 27/15/6
f 10/15/6 13/15/6 16/15/6
f 16/15/6 13/15/6 17/15/6
f 17/15/6 13/15/6 26/15/6
f 64/15/6 20/15/6 66/15/6
f 59/15/7 64/15/7 61/15/7
f 64/15/6 63/15/6 59/15/6
f 45/15/6 51/15/6 48/15/6
f 51/15/6 52/15/6 48/15/6
f 52/15/6 58/15/6 48/15/6
f 20/15/6 33/15/6 32/15/6
f 31/15/6 35/15/6 32/15/6
f 64/15/6 33/15/6 20/15/6
f 64/15/6 66/15/6 63/15/6
l 28 9
l 11 12
l 15 18
l 21 42
l 37 15
l 25 24
l 21 26
l 14 34
l 38 39
l 37 36
l 12 14
l 39 31
l 10 38
l 22 29
l 18 30
l 30 39
l 23 21
l 41 24
l 40 25
l 35 28
l 34 43
l 9 11
l 42 36
l 19 22
l 60 44
l 46 47
l 50 53
l 54 71
l 68 50
l 57 56
l 54 58
l 49 65
l 69 70
l 68 67
l 47 49
l 70 63
l 45 69
l 55 61
l 53 62
l 62 70
l 23 54
l 41 56
l 40 57
l 66 60
l 65 43
l 44 46
l 71 67
l 19 55
o Cube.001
v -1.000000 -1.000000 1.000000
v -1.000000 1.000000 1.000000
v -1.000000 -1.000000 -1.000000
v -1.000000 1.000000 -1.000000
v 1.000000 -1.000000 1.000000
v 1.000000 1.000000 1.000000
v 1.000000 -1.000000 -1.000000
v 1.000000 1.000000 -1.000000
vn -1.0000 -0.0000 -0.0000
vn -0.0000 -0.0000 -1.0000
vn 1.0000 -0.0000 -0.0000
vn -0.0000 -0.0000 1.0000
vn -0.0000 -1.0000 -0.0000
vn -0.0000 1.0000 -0.0000
vt 0.625000 0.000000
vt 0.375000 0.250000
vt 0.375000 0.000000
vt 0.625000 0.250000
vt 0.375000 0.500000
vt 0.625000 0.500000
vt 0.375000 0.750000
vt 0.625000 0.750000
vt 0.375000 1.000000
vt 0.125000 0.750000
vt 0.125000 0.500000
vt 0.875000 0.500000
vt 0.625000 1.000000
vt 0.875000 0.750000
s 0
f 73/16/8 74/17/8 72/18/8
f 75/19/9 78/20/9 74/17/9
f 79/21/10 76/22/10 78/20/10
f 77/23/11 72/24/11 76/22/11
f 78/20/12 72/25/12 74/26/12
f 75/27/13 77/23/13 79/21/13
f 73/16/8 75/19/8 74/17/8
f 75/19/9 79/21/9 78/20/9
f 79/21/10 77/23/10 76/22/10
f 77/23/11 73/28/11 72/24/11
f 78/20/12 76/22/12 72/25/12
f 75/27/13 73/29/13 77/23/13
