# Blender 4.3.2
# www.blender.org
mtllib wall.mtl
o wall
v 3.004487 -0.203421 -1.451579
v 2.995512 -0.200639 -1.448155
v 3.004030 1.637598 -1.451499
v 2.995969 1.632663 -1.448236
v 3.004488 -0.203421 1.451577
v 2.995513 -0.200639 1.448153
v 3.004031 1.637598 1.451497
v 2.995970 1.632663 1.448234
v 1.004030 -2.375409 -3.122197
v 0.995968 -2.371099 -3.118145
v 1.003254 2.318379 -3.123069
v 0.996744 2.313477 -3.117273
v 1.004032 -2.375409 3.122196
v 0.995970 -2.371099 3.118145
v 1.003256 2.318379 3.123069
v 0.996746 2.313477 3.117272
v 1.004732 2.314317 -3.109844
v 2.995266 1.636742 -1.447446
v 2.995267 1.636742 1.447444
v 1.004734 2.314317 3.109844
v 0.995383 2.318523 3.122766
v 0.995381 2.318523 -3.122766
v 2.996163 -0.199688 1.453070
v 1.003839 -2.362580 3.116966
v 0.996177 -2.376896 3.123813
v 1.003839 2.309454 3.116966
v 2.996163 1.631269 1.453070
v 2.996162 -0.199688 -1.453072
v 2.996162 1.631269 -1.453072
v 1.003837 2.309454 -3.116966
v 0.996175 -2.376896 -3.123813
v 1.003837 -2.362580 -3.116966
v 3.000000 -0.197030 1.444865
v 3.000000 1.630130 1.444865
v 3.000000 1.630130 -1.444867
v 3.000000 -0.197030 -1.444867
v 2.996612 -0.205708 -1.446952
v 1.003386 -2.369576 -3.111597
v 1.003389 -2.369576 3.111597
v 2.996613 -0.205708 1.446950
vn 0.0881 0.9549 0.2835
vn -0.6694 -0.2506 0.6994
vn -0.0973 0.9953 -0.0000
vn -0.9855 -0.1697 -0.0000
vn 0.0553 0.9460 -0.3194
vn -0.6638 -0.1559 -0.7315
vn 0.9397 0.3420 -0.0000
vn 0.1045 -0.9945 -0.0000
vn 0.0183 0.9998 -0.0000
vn -0.9654 -0.2609 -0.0000
vn 0.3229 0.3720 0.8702
vn -0.7344 0.6787 0.0028
vn 0.9993 0.0002 -0.0365
vn -0.0432 -0.0000 -0.9991
vn -0.0385 -0.0002 0.9993
vn -0.9993 -0.0002 0.0365
vn 0.4602 -0.4805 0.7465
vn -0.4775 -0.8492 -0.2257
vn 0.1960 0.0001 0.9806
vn -0.9914 -0.0000 0.1310
vn 0.1765 -0.0000 -0.9843
vn -0.9992 0.0002 -0.0400
vn 0.4920 -0.4224 -0.7613
vn -0.4868 -0.8397 0.2405
vn 0.9955 -0.0000 -0.0950
vn -0.1480 -0.0002 0.9890
vn 0.2015 0.0003 -0.9795
vn -0.9705 0.0001 0.2410
vn 0.3360 0.3600 -0.8703
vn -0.7465 0.6647 0.0299
vn 0.8313 -0.0000 -0.5558
vn -0.6412 -0.0000 -0.7674
vn 0.8800 -0.4750 -0.0000
vn -0.5320 -0.8468 -0.0000
vn 0.8544 0.0002 0.5196
vn -0.5911 0.0002 0.8066
vn 0.8184 0.5746 -0.0000
vn -0.6267 0.7793 -0.0000
vn 0.4752 -0.7680 0.4293
vn -0.6658 0.0402 0.7450
vn 0.9940 0.1097 -0.0000
vn -0.2011 0.9796 -0.0000
vn 0.1860 -0.9825 -0.0000
vn -0.9994 -0.0358 -0.0000
vn 0.4572 -0.7671 -0.4500
vn -0.6622 0.0341 -0.7486
vn 0.2788 -0.9603 -0.0000
vn -0.9773 -0.2120 -0.0000
vn 0.0553 0.9460 0.3194
vn -0.6638 -0.1562 0.7314
vn -0.0972 0.9953 -0.0000
vn 0.0881 0.9549 -0.2834
vn -0.6694 -0.2506 -0.6994
vn 0.1046 -0.9945 -0.0000
vn 0.3360 0.3599 0.8704
vn -0.7465 0.6647 -0.0299
vn 0.9955 -0.0000 0.0950
vn -0.1480 -0.0002 -0.9890
vn 0.2015 0.0003 0.9795
vn -0.9705 0.0001 -0.2410
vn 0.4920 -0.4224 0.7613
vn -0.4867 -0.8398 -0.2405
vn 0.1765 -0.0000 0.9843
vn -0.9992 0.0002 0.0401
vn 0.1960 0.0001 -0.9806
vn -0.9914 -0.0000 -0.1310
vn 0.4602 -0.4805 -0.7466
vn -0.4775 -0.8492 0.2256
vn 0.9993 0.0002 0.0366
vn -0.0432 -0.0000 0.9991
vn -0.0385 -0.0002 -0.9993
vn -0.9993 -0.0002 -0.0365
vn 0.3229 0.3720 -0.8703
vn -0.7344 0.6787 -0.0028
vn 0.8544 0.0002 -0.5196
vn -0.5912 0.0002 -0.8066
vn 0.8313 -0.0000 0.5558
vn -0.6412 -0.0000 0.7673
vn 0.4572 -0.7672 0.4499
vn -0.6622 0.0341 0.7486
vn -0.2010 0.9796 -0.0000
vn 0.1860 -0.9826 -0.0000
vn 0.4752 -0.7680 -0.4293
vn -0.6658 0.0402 -0.7450
vt 0.625000 0.750000
vt 0.875000 0.750000
vt 0.875000 0.500000
vt 0.625000 0.500000
vt 0.375000 0.500000
vt 0.375000 0.250000
vt 0.625000 0.250000
vt 0.625000 1.000000
vt 0.375000 1.000000
vt 0.375000 0.750000
vt 0.625000 0.000000
vt 0.375000 0.000000
vt 0.125000 0.750000
vt 0.125000 0.500000
s 0
f 17/1/1 3/2/1 11/1/1
f 17/1/2 4/2/2 18/2/2
f 18/2/3 7/3/3 3/2/3
f 19/3/4 4/2/4 8/3/4
f 20/4/5 7/3/5 19/3/5
f 20/4/6 8/3/6 16/4/6
f 17/1/7 15/4/7 20/4/7
f 20/4/8 12/1/8 17/1/8
f 21/4/9 11/1/9 22/1/9
f 22/1/10 16/4/10 21/4/10
f 24/5/11 5/6/11 23/6/11
f 24/5/12 6/6/12 14/5/12
f 24/5/13 15/4/13 13/5/13
f 24/5/14 16/4/14 26/4/14
f 21/4/15 13/5/15 15/4/15
f 21/4/16 14/5/16 25/5/16
f 26/4/17 7/7/17 15/4/17
f 26/4/18 8/7/18 27/7/18
f 27/7/19 5/6/19 7/7/19
f 27/7/20 6/6/20 23/6/20
f 29/8/21 1/9/21 28/9/21
f 29/8/22 2/9/22 4/8/22
f 30/1/23 3/8/23 29/8/23
f 30/1/24 4/8/24 12/1/24
f 32/10/25 11/1/25 30/1/25
f 32/10/26 12/1/26 10/10/26
f 22/1/27 9/10/27 31/10/27
f 22/1/28 10/10/28 12/1/28
f 32/10/29 1/9/29 9/10/29
f 32/10/30 2/9/30 28/9/30
f 34/7/31 5/6/31 33/6/31
f 33/6/32 8/7/32 34/7/32
f 35/11/33 7/7/33 34/7/33
f 35/11/34 8/7/34 4/11/34
f 35/11/35 1/12/35 3/11/35
f 36/12/36 4/11/36 2/12/36
f 33/6/37 1/12/37 36/12/37
f 36/12/38 6/6/38 33/6/38
f 38/10/39 1/13/39 37/13/39
f 38/10/40 2/13/40 10/10/40
f 39/5/41 9/10/41 38/10/41
f 38/10/42 14/5/42 39/5/42
f 31/10/43 13/5/43 25/5/43
f 25/5/44 10/10/44 31/10/44
f 39/5/45 5/14/45 13/5/45
f 39/5/46 6/14/46 40/14/46
f 37/13/47 5/14/47 40/14/47
f 40/14/48 2/13/48 37/13/48
f 17/1/49 18/2/49 3/2/49
f 17/1/50 12/1/50 4/2/50
f 18/2/51 19/3/51 7/3/51
f 19/3/4 18/2/4 4/2/4
f 20/4/52 15/4/52 7/3/52
f 20/4/53 19/3/53 8/3/53
f 17/1/7 11/1/7 15/4/7
f 20/4/54 16/4/54 12/1/54
f 21/4/9 15/4/9 11/1/9
f 22/1/10 12/1/10 16/4/10
f 24/5/55 13/5/55 5/6/55
f 24/5/56 23/6/56 6/6/56
f 24/5/57 26/4/57 15/4/57
f 24/5/58 14/5/58 16/4/58
f 21/4/59 25/5/59 13/5/59
f 21/4/60 16/4/60 14/5/60
f 26/4/61 27/7/61 7/7/61
f 26/4/62 16/4/62 8/7/62
f 27/7/63 23/6/63 5/6/63
f 27/7/64 8/7/64 6/6/64
f 29/8/65 3/8/65 1/9/65
f 29/8/66 28/9/66 2/9/66
f 30/1/67 11/1/67 3/8/67
f 30/1/68 29/8/68 4/8/68
f 32/10/69 9/10/69 11/1/69
f 32/10/70 30/1/70 12/1/70
f 22/1/71 11/1/71 9/10/71
f 22/1/72 31/10/72 10/10/72
f 32/10/73 28/9/73 1/9/73
f 32/10/74 10/10/74 2/9/74
f 34/7/75 7/7/75 5/6/75
f 33/6/76 6/6/76 8/7/76
f 35/11/33 3/11/33 7/7/33
f 35/11/34 34/7/34 8/7/34
f 35/11/77 36/12/77 1/12/77
f 36/12/78 35/11/78 4/11/78
f 33/6/37 5/6/37 1/12/37
f 36/12/38 2/12/38 6/6/38
f 38/10/79 9/10/79 1/13/79
f 38/10/80 37/13/80 2/13/80
f 39/5/41 13/5/41 9/10/41
f 38/10/81 10/10/81 14/5/81
f 31/10/82 9/10/82 13/5/82
f 25/5/44 14/5/44 10/10/44
f 39/5/83 40/14/83 5/14/83
f 39/5/84 14/5/84 6/14/84
f 37/13/47 1/13/47 5/14/47
f 40/14/48 6/14/48 2/13/48
